<mxfile host="app.diagrams.net" agent="Mozilla/5.0 (Windows NT 10.0; Win64; x64) AppleWebKit/537.36 (KHTML, like Gecko) Chrome/130.0.0.0 Safari/537.36" version="24.8.6">
  <diagram id="C5RBs43oDa-KdzZeNtuy" name="Page-1">
    <mxGraphModel dx="1050" dy="522" grid="1" gridSize="10" guides="1" tooltips="1" connect="1" arrows="1" fold="1" page="1" pageScale="1" pageWidth="827" pageHeight="1169" math="0" shadow="0">
      <root>
        <mxCell id="WIyWlLk6GJQsqaUBKTNV-0" />
        <mxCell id="WIyWlLk6GJQsqaUBKTNV-1" parent="WIyWlLk6GJQsqaUBKTNV-0" />
        <mxCell id="scd1Hp1tuSgseMVzI6K6-2" value="" style="edgeStyle=orthogonalEdgeStyle;rounded=0;orthogonalLoop=1;jettySize=auto;html=1;" edge="1" parent="WIyWlLk6GJQsqaUBKTNV-1" source="scd1Hp1tuSgseMVzI6K6-0" target="scd1Hp1tuSgseMVzI6K6-1">
          <mxGeometry relative="1" as="geometry" />
        </mxCell>
        <mxCell id="scd1Hp1tuSgseMVzI6K6-0" value="START" style="ellipse;whiteSpace=wrap;html=1;" vertex="1" parent="WIyWlLk6GJQsqaUBKTNV-1">
          <mxGeometry x="354" y="30" width="120" height="80" as="geometry" />
        </mxCell>
        <mxCell id="scd1Hp1tuSgseMVzI6K6-4" value="" style="edgeStyle=orthogonalEdgeStyle;rounded=0;orthogonalLoop=1;jettySize=auto;html=1;" edge="1" parent="WIyWlLk6GJQsqaUBKTNV-1" source="scd1Hp1tuSgseMVzI6K6-1" target="scd1Hp1tuSgseMVzI6K6-3">
          <mxGeometry relative="1" as="geometry" />
        </mxCell>
        <mxCell id="scd1Hp1tuSgseMVzI6K6-6" value="" style="edgeStyle=orthogonalEdgeStyle;rounded=0;orthogonalLoop=1;jettySize=auto;html=1;" edge="1" parent="WIyWlLk6GJQsqaUBKTNV-1" source="scd1Hp1tuSgseMVzI6K6-1">
          <mxGeometry relative="1" as="geometry">
            <mxPoint x="240" y="331.25" as="targetPoint" />
          </mxGeometry>
        </mxCell>
        <mxCell id="scd1Hp1tuSgseMVzI6K6-8" value="" style="edgeStyle=orthogonalEdgeStyle;rounded=0;orthogonalLoop=1;jettySize=auto;html=1;" edge="1" parent="WIyWlLk6GJQsqaUBKTNV-1" source="scd1Hp1tuSgseMVzI6K6-1" target="scd1Hp1tuSgseMVzI6K6-7">
          <mxGeometry relative="1" as="geometry" />
        </mxCell>
        <mxCell id="scd1Hp1tuSgseMVzI6K6-10" value="" style="edgeStyle=orthogonalEdgeStyle;rounded=0;orthogonalLoop=1;jettySize=auto;html=1;" edge="1" parent="WIyWlLk6GJQsqaUBKTNV-1" source="scd1Hp1tuSgseMVzI6K6-1" target="scd1Hp1tuSgseMVzI6K6-9">
          <mxGeometry relative="1" as="geometry" />
        </mxCell>
        <mxCell id="scd1Hp1tuSgseMVzI6K6-12" value="" style="edgeStyle=orthogonalEdgeStyle;rounded=0;orthogonalLoop=1;jettySize=auto;html=1;" edge="1" parent="WIyWlLk6GJQsqaUBKTNV-1" source="scd1Hp1tuSgseMVzI6K6-1" target="scd1Hp1tuSgseMVzI6K6-11">
          <mxGeometry relative="1" as="geometry" />
        </mxCell>
        <mxCell id="scd1Hp1tuSgseMVzI6K6-1" value="Nhập điểm" style="shape=parallelogram;perimeter=parallelogramPerimeter;whiteSpace=wrap;html=1;fixedSize=1;" vertex="1" parent="WIyWlLk6GJQsqaUBKTNV-1">
          <mxGeometry x="354" y="200" width="120" height="60" as="geometry" />
        </mxCell>
        <mxCell id="scd1Hp1tuSgseMVzI6K6-14" value="" style="edgeStyle=orthogonalEdgeStyle;rounded=0;orthogonalLoop=1;jettySize=auto;html=1;" edge="1" parent="WIyWlLk6GJQsqaUBKTNV-1" source="scd1Hp1tuSgseMVzI6K6-3" target="scd1Hp1tuSgseMVzI6K6-13">
          <mxGeometry relative="1" as="geometry" />
        </mxCell>
        <mxCell id="scd1Hp1tuSgseMVzI6K6-3" value="Điểm &amp;lt; 4?" style="rhombus;whiteSpace=wrap;html=1;" vertex="1" parent="WIyWlLk6GJQsqaUBKTNV-1">
          <mxGeometry x="40" y="330" width="80" height="80" as="geometry" />
        </mxCell>
        <mxCell id="scd1Hp1tuSgseMVzI6K6-24" value="" style="edgeStyle=orthogonalEdgeStyle;rounded=0;orthogonalLoop=1;jettySize=auto;html=1;" edge="1" parent="WIyWlLk6GJQsqaUBKTNV-1" source="scd1Hp1tuSgseMVzI6K6-7" target="scd1Hp1tuSgseMVzI6K6-23">
          <mxGeometry relative="1" as="geometry" />
        </mxCell>
        <mxCell id="scd1Hp1tuSgseMVzI6K6-7" value="9&amp;lt;Điểm&amp;lt;10" style="rhombus;whiteSpace=wrap;html=1;" vertex="1" parent="WIyWlLk6GJQsqaUBKTNV-1">
          <mxGeometry x="680" y="330" width="80" height="80" as="geometry" />
        </mxCell>
        <mxCell id="scd1Hp1tuSgseMVzI6K6-22" value="" style="edgeStyle=orthogonalEdgeStyle;rounded=0;orthogonalLoop=1;jettySize=auto;html=1;" edge="1" parent="WIyWlLk6GJQsqaUBKTNV-1" source="scd1Hp1tuSgseMVzI6K6-9" target="scd1Hp1tuSgseMVzI6K6-21">
          <mxGeometry relative="1" as="geometry" />
        </mxCell>
        <mxCell id="scd1Hp1tuSgseMVzI6K6-9" value="8&amp;lt;Điểm&amp;lt;9" style="rhombus;whiteSpace=wrap;html=1;" vertex="1" parent="WIyWlLk6GJQsqaUBKTNV-1">
          <mxGeometry x="540" y="330" width="80" height="80" as="geometry" />
        </mxCell>
        <mxCell id="scd1Hp1tuSgseMVzI6K6-20" value="" style="edgeStyle=orthogonalEdgeStyle;rounded=0;orthogonalLoop=1;jettySize=auto;html=1;" edge="1" parent="WIyWlLk6GJQsqaUBKTNV-1" source="scd1Hp1tuSgseMVzI6K6-11" target="scd1Hp1tuSgseMVzI6K6-19">
          <mxGeometry relative="1" as="geometry" />
        </mxCell>
        <mxCell id="scd1Hp1tuSgseMVzI6K6-11" value="6&amp;lt;Điểm&amp;lt;8" style="rhombus;whiteSpace=wrap;html=1;" vertex="1" parent="WIyWlLk6GJQsqaUBKTNV-1">
          <mxGeometry x="374" y="330" width="80" height="80" as="geometry" />
        </mxCell>
        <mxCell id="scd1Hp1tuSgseMVzI6K6-37" value="" style="edgeStyle=orthogonalEdgeStyle;rounded=0;orthogonalLoop=1;jettySize=auto;html=1;" edge="1" parent="WIyWlLk6GJQsqaUBKTNV-1" source="scd1Hp1tuSgseMVzI6K6-13" target="scd1Hp1tuSgseMVzI6K6-36">
          <mxGeometry relative="1" as="geometry" />
        </mxCell>
        <mxCell id="scd1Hp1tuSgseMVzI6K6-13" value="Không đạt" style="whiteSpace=wrap;html=1;" vertex="1" parent="WIyWlLk6GJQsqaUBKTNV-1">
          <mxGeometry x="20" y="500" width="120" height="60" as="geometry" />
        </mxCell>
        <mxCell id="scd1Hp1tuSgseMVzI6K6-18" value="" style="edgeStyle=orthogonalEdgeStyle;rounded=0;orthogonalLoop=1;jettySize=auto;html=1;" edge="1" parent="WIyWlLk6GJQsqaUBKTNV-1" source="scd1Hp1tuSgseMVzI6K6-16" target="scd1Hp1tuSgseMVzI6K6-17">
          <mxGeometry relative="1" as="geometry" />
        </mxCell>
        <mxCell id="scd1Hp1tuSgseMVzI6K6-16" value="4&amp;lt;Điểm&amp;lt;6" style="rhombus;whiteSpace=wrap;html=1;" vertex="1" parent="WIyWlLk6GJQsqaUBKTNV-1">
          <mxGeometry x="200" y="330" width="80" height="80" as="geometry" />
        </mxCell>
        <mxCell id="scd1Hp1tuSgseMVzI6K6-44" value="" style="edgeStyle=orthogonalEdgeStyle;rounded=0;orthogonalLoop=1;jettySize=auto;html=1;" edge="1" parent="WIyWlLk6GJQsqaUBKTNV-1" source="scd1Hp1tuSgseMVzI6K6-17" target="scd1Hp1tuSgseMVzI6K6-43">
          <mxGeometry relative="1" as="geometry" />
        </mxCell>
        <mxCell id="scd1Hp1tuSgseMVzI6K6-17" value="Trung bình" style="whiteSpace=wrap;html=1;" vertex="1" parent="WIyWlLk6GJQsqaUBKTNV-1">
          <mxGeometry x="180" y="500" width="120" height="60" as="geometry" />
        </mxCell>
        <mxCell id="scd1Hp1tuSgseMVzI6K6-26" value="" style="edgeStyle=orthogonalEdgeStyle;rounded=0;orthogonalLoop=1;jettySize=auto;html=1;" edge="1" parent="WIyWlLk6GJQsqaUBKTNV-1" source="scd1Hp1tuSgseMVzI6K6-19" target="scd1Hp1tuSgseMVzI6K6-25">
          <mxGeometry relative="1" as="geometry" />
        </mxCell>
        <mxCell id="scd1Hp1tuSgseMVzI6K6-19" value="Khá" style="whiteSpace=wrap;html=1;" vertex="1" parent="WIyWlLk6GJQsqaUBKTNV-1">
          <mxGeometry x="354" y="500" width="120" height="60" as="geometry" />
        </mxCell>
        <mxCell id="scd1Hp1tuSgseMVzI6K6-29" value="" style="edgeStyle=orthogonalEdgeStyle;rounded=0;orthogonalLoop=1;jettySize=auto;html=1;" edge="1" parent="WIyWlLk6GJQsqaUBKTNV-1" source="scd1Hp1tuSgseMVzI6K6-21" target="scd1Hp1tuSgseMVzI6K6-28">
          <mxGeometry relative="1" as="geometry" />
        </mxCell>
        <mxCell id="scd1Hp1tuSgseMVzI6K6-21" value="Giỏi" style="whiteSpace=wrap;html=1;" vertex="1" parent="WIyWlLk6GJQsqaUBKTNV-1">
          <mxGeometry x="520" y="500" width="120" height="60" as="geometry" />
        </mxCell>
        <mxCell id="scd1Hp1tuSgseMVzI6K6-31" value="" style="edgeStyle=orthogonalEdgeStyle;rounded=0;orthogonalLoop=1;jettySize=auto;html=1;" edge="1" parent="WIyWlLk6GJQsqaUBKTNV-1" source="scd1Hp1tuSgseMVzI6K6-23" target="scd1Hp1tuSgseMVzI6K6-30">
          <mxGeometry relative="1" as="geometry" />
        </mxCell>
        <mxCell id="scd1Hp1tuSgseMVzI6K6-23" value="Xuất sắc" style="whiteSpace=wrap;html=1;" vertex="1" parent="WIyWlLk6GJQsqaUBKTNV-1">
          <mxGeometry x="660" y="500" width="120" height="60" as="geometry" />
        </mxCell>
        <mxCell id="scd1Hp1tuSgseMVzI6K6-25" value="" style="shape=waypoint;sketch=0;size=6;pointerEvents=1;points=[];fillColor=default;resizable=0;rotatable=0;perimeter=centerPerimeter;snapToPoint=1;" vertex="1" parent="WIyWlLk6GJQsqaUBKTNV-1">
          <mxGeometry x="404" y="620" width="20" height="20" as="geometry" />
        </mxCell>
        <mxCell id="scd1Hp1tuSgseMVzI6K6-27" value="END" style="ellipse;whiteSpace=wrap;html=1;" vertex="1" parent="WIyWlLk6GJQsqaUBKTNV-1">
          <mxGeometry x="354" y="630" width="120" height="80" as="geometry" />
        </mxCell>
        <mxCell id="scd1Hp1tuSgseMVzI6K6-32" value="" style="edgeStyle=orthogonalEdgeStyle;rounded=0;orthogonalLoop=1;jettySize=auto;html=1;exitX=0.24;exitY=0.74;exitDx=0;exitDy=0;exitPerimeter=0;" edge="1" parent="WIyWlLk6GJQsqaUBKTNV-1" source="scd1Hp1tuSgseMVzI6K6-30" target="scd1Hp1tuSgseMVzI6K6-27">
          <mxGeometry relative="1" as="geometry" />
        </mxCell>
        <mxCell id="scd1Hp1tuSgseMVzI6K6-28" value="" style="shape=waypoint;sketch=0;size=6;pointerEvents=1;points=[];fillColor=default;resizable=0;rotatable=0;perimeter=centerPerimeter;snapToPoint=1;" vertex="1" parent="WIyWlLk6GJQsqaUBKTNV-1">
          <mxGeometry x="570" y="660" width="20" height="20" as="geometry" />
        </mxCell>
        <mxCell id="scd1Hp1tuSgseMVzI6K6-30" value="" style="shape=waypoint;sketch=0;size=6;pointerEvents=1;points=[];fillColor=default;resizable=0;rotatable=0;perimeter=centerPerimeter;snapToPoint=1;" vertex="1" parent="WIyWlLk6GJQsqaUBKTNV-1">
          <mxGeometry x="710" y="660" width="20" height="20" as="geometry" />
        </mxCell>
        <mxCell id="scd1Hp1tuSgseMVzI6K6-33" value="" style="shape=waypoint;sketch=0;size=6;pointerEvents=1;points=[];fillColor=default;resizable=0;rotatable=0;perimeter=centerPerimeter;snapToPoint=1;" vertex="1" parent="WIyWlLk6GJQsqaUBKTNV-1">
          <mxGeometry x="570" y="660" width="20" height="20" as="geometry" />
        </mxCell>
        <mxCell id="scd1Hp1tuSgseMVzI6K6-39" value="" style="edgeStyle=orthogonalEdgeStyle;rounded=0;orthogonalLoop=1;jettySize=auto;html=1;entryX=0;entryY=0.5;entryDx=0;entryDy=0;" edge="1" parent="WIyWlLk6GJQsqaUBKTNV-1" source="scd1Hp1tuSgseMVzI6K6-36" target="scd1Hp1tuSgseMVzI6K6-27">
          <mxGeometry relative="1" as="geometry">
            <mxPoint x="180" y="670" as="targetPoint" />
          </mxGeometry>
        </mxCell>
        <mxCell id="scd1Hp1tuSgseMVzI6K6-36" value="" style="shape=waypoint;sketch=0;size=6;pointerEvents=1;points=[];fillColor=default;resizable=0;rotatable=0;perimeter=centerPerimeter;snapToPoint=1;" vertex="1" parent="WIyWlLk6GJQsqaUBKTNV-1">
          <mxGeometry x="70" y="660" width="20" height="20" as="geometry" />
        </mxCell>
        <mxCell id="scd1Hp1tuSgseMVzI6K6-43" value="" style="shape=waypoint;sketch=0;size=6;pointerEvents=1;points=[];fillColor=default;resizable=0;rotatable=0;perimeter=centerPerimeter;snapToPoint=1;" vertex="1" parent="WIyWlLk6GJQsqaUBKTNV-1">
          <mxGeometry x="230" y="660" width="20" height="20" as="geometry" />
        </mxCell>
      </root>
    </mxGraphModel>
  </diagram>
</mxfile>
